<svg width="15" height="15" viewBox="0 0 15 15" fill="none" xmlns="http://www.w3.org/2000/svg">
<g clip-path="url(#clip0)">
<path d="M14.3749 9.17308H14.3731C13.6496 8.4463 12.51 8.34098 11.6656 8.92281L6.09141 3.35052C6.75296 2.37964 6.50222 1.05625 5.53129 0.394691C4.56041 -0.266911 3.23706 -0.0161206 2.57546 0.954763C2.32689 1.31955 2.19797 1.75264 2.20655 2.19393C1.62737 2.1771 1.06692 2.40007 0.657531 2.81012C-0.191963 3.6217 -0.222678 4.96827 0.588896 5.81776C1.32103 6.58412 2.50564 6.69461 3.36689 6.0769L8.93917 11.6492C8.27762 12.6201 8.52836 13.9435 9.49929 14.605C10.4702 15.2666 11.7936 15.0158 12.4551 14.0449C12.7037 13.6801 12.8326 13.247 12.824 12.8057C13.9986 12.8325 14.9725 11.902 14.9992 10.7274C15.0125 10.1458 14.7868 9.58403 14.3749 9.17308Z" fill="black"/>
</g>
<defs>
<clipPath id="clip0">
<rect width="15" height="15" fill="white"/>
</clipPath>
</defs>
</svg>
