<svg width="16" height="16" viewBox="0 0 16 16" fill="none" xmlns="http://www.w3.org/2000/svg">
<path fill-rule="evenodd" clip-rule="evenodd" d="M9.22402 1.55307C9.34231 1.61248 9.43221 1.71638 9.47401 1.84197C9.51582 1.96757 9.50611 2.10462 9.44702 2.22307L6.56002 8.00007L9.44802 13.7761C9.47804 13.8348 9.49613 13.899 9.50125 13.9647C9.50637 14.0305 9.49841 14.0967 9.47785 14.1594C9.45728 14.2221 9.4245 14.2801 9.38141 14.3301C9.33832 14.38 9.28576 14.421 9.22676 14.4505C9.16777 14.4801 9.10351 14.4977 9.03768 14.5023C8.97185 14.5069 8.90577 14.4985 8.84323 14.4774C8.78069 14.4563 8.72294 14.4231 8.6733 14.3796C8.62367 14.3362 8.58313 14.2833 8.55402 14.2241L5.55402 8.22407C5.51918 8.15454 5.50104 8.07784 5.50104 8.00007C5.50104 7.9223 5.51918 7.8456 5.55402 7.77607L8.55402 1.77607C8.61343 1.65778 8.71733 1.56788 8.84293 1.52608C8.96852 1.48427 9.10557 1.49398 9.22402 1.55307Z" fill="black"/>
</svg>
