<svg width="1440" height="128" viewBox="0 0 1440 128" fill="none" xmlns="http://www.w3.org/2000/svg">
<path fill-rule="evenodd" clip-rule="evenodd" d="M0 22.0632L60 29.4175C120 36.7719 240 51.4807 360 47.8035C480 44.1263 600 22.0632 720 16.5474C840 11.0316 960 22.0632 1080 22.0632C1200 22.0632 1320 11.0316 1380 5.51579L1440 0V88.2526H1380C1320 88.2526 1200 88.2526 1080 88.2526C960 88.2526 840 88.2526 720 88.2526C600 88.2526 480 88.2526 360 88.2526C240 88.2526 120 88.2526 60 88.2526H0V22.0632Z" fill="#FFD600"/>
<path fill-rule="evenodd" clip-rule="evenodd" d="M0 38.4721L60 48.4196C120 58.3672 240 78.2623 360 73.2886C480 68.3148 600 38.4721 720 31.0114C840 23.5507 960 38.4721 1080 38.4721C1200 38.4721 1320 23.5507 1380 16.0901L1440 8.62939V128H1380C1320 128 1200 128 1080 128C960 128 840 128 720 128C600 128 480 128 360 128C240 128 120 128 60 128H0V38.4721Z" fill="#FFE100"/>
</svg>
