<svg width="41" height="41" viewBox="0 0 41 41" fill="none" xmlns="http://www.w3.org/2000/svg">
<g clip-path="url(#clip0)">
<path d="M13.8924 22.6106C11.3159 23.8991 5.58687 29.6411 3.17268 34.8858C2.91523 35.4452 3.12472 36.1107 3.65948 36.416C7.39174 38.5463 16.7031 38.2124 21.1252 37.4267C22.9427 33.3664 21.4751 21.897 21.4751 21.897L13.8924 22.6106Z" fill="#BD4568"/>
<path d="M5.39123 37.3362C5.12025 37.3362 4.84766 37.245 4.62304 37.058C4.11279 36.6334 4.04336 35.8755 4.46809 35.3652C6.6177 32.7824 8.52275 32.2834 10.2033 31.843C11.4397 31.5191 12.5073 31.2394 13.7059 30.0881C14.1848 29.6283 14.9456 29.6437 15.4054 30.1223C15.8652 30.6011 15.85 31.362 15.3712 31.8218C13.7216 33.4062 12.1762 33.8112 10.8127 34.1684C9.28862 34.5677 7.97246 34.9126 6.31573 36.9031C6.07806 37.1887 5.73588 37.3362 5.39123 37.3362Z" fill="#EDA751"/>
<path d="M5.18655 34.5686C4.95008 34.81 4.71073 35.0737 4.46809 35.3652C4.04336 35.8754 4.11279 36.6333 4.62304 37.058C4.84766 37.245 5.12025 37.3362 5.39123 37.3362C5.73588 37.3362 6.07806 37.1887 6.31573 36.9031C6.54459 36.6281 6.7668 36.3856 6.98414 36.1689C6.53818 35.4166 5.82349 34.8371 5.18655 34.5686Z" fill="#FCD79D"/>
<path d="M12.0302 40.3708C11.3375 40.3708 10.6683 39.9954 10.3247 39.3391C9.83219 38.3981 10.1958 37.2359 11.1368 36.7435C13.3288 35.5962 14.4279 34.1497 15.3974 32.8735C15.5067 32.7296 15.6134 32.5892 15.7185 32.4531C16.3676 31.6126 17.5755 31.4574 18.416 32.1066C19.2565 32.7558 19.4117 33.9635 18.7625 34.8041C18.6635 34.9324 18.563 35.0647 18.4598 35.2004C17.3678 36.6377 15.8723 38.6062 12.9203 40.1513C12.6358 40.3003 12.3309 40.3708 12.0302 40.3708Z" fill="#EDA751"/>
<path d="M21.3584 40.3992C20.806 40.3992 20.2578 40.1624 19.8774 39.704C19.1992 38.8867 19.312 37.6742 20.1293 36.996C21.7095 35.6849 21.389 33.8861 21.2605 33.5863C20.8419 32.6102 21.294 31.4795 22.2702 31.061C23.2464 30.6425 24.3769 31.0946 24.7955 32.0707C25.5354 33.7964 25.5896 37.463 22.5855 39.9559C22.2264 40.2538 21.7911 40.3992 21.3584 40.3992Z" fill="#EDA751"/>
<path d="M26.6917 28.9766C25.7385 28.9766 24.9113 28.2685 24.7867 27.298C24.6515 26.2445 25.396 25.2809 26.4494 25.1457C27.7957 24.973 31.9195 22.7307 34.3287 20.8613C35.1679 20.2102 36.3759 20.3627 37.027 21.2018C37.6781 22.041 37.5257 23.249 36.6865 23.9001C34.282 25.7658 29.4274 28.6414 26.939 28.9606C26.856 28.9714 26.7732 28.9766 26.6917 28.9766Z" fill="#EDA751"/>
<path opacity="0.2" d="M30.246 27.8237C30.2723 26.4768 30.0057 25.1532 29.467 23.9185C28.1778 24.5904 27.0433 25.0696 26.4493 25.1458C25.3959 25.281 24.6515 26.2446 24.7867 27.2981C24.9112 28.2685 25.7385 28.9767 26.6916 28.9767C26.7732 28.9767 26.8559 28.9714 26.9389 28.9608C27.817 28.8481 28.9903 28.4163 30.246 27.8237Z" fill="#A35F00"/>
<path opacity="0.2" d="M22.2702 31.0612C21.294 31.4798 20.8419 32.6104 21.2605 33.5865C21.389 33.8864 21.7096 35.6851 20.1293 36.9963C20.0122 37.0935 19.9101 37.2019 19.8221 37.3182C19.8828 37.3193 19.9435 37.3211 20.0039 37.3211C21.7725 37.3211 23.4962 36.893 25.0157 36.0935C25.3959 34.513 25.1966 33.0067 24.7955 32.071C24.377 31.0948 23.2464 30.6427 22.2702 31.0612Z" fill="#A35F00"/>
<path opacity="0.2" d="M18.4161 32.1067C17.5756 31.4575 16.3677 31.6128 15.7186 32.4533C15.6136 32.5893 15.5069 32.7297 15.3976 32.8736C14.8411 33.606 14.2416 34.3944 13.4178 35.1503C14.497 35.9622 15.7317 36.5655 17.0628 36.9276C17.6149 36.3125 18.0643 35.7216 18.4602 35.2005C18.5633 35.0648 18.6637 34.9326 18.7628 34.8043C19.4119 33.9635 19.2567 32.7558 18.4161 32.1067Z" fill="#A35F00"/>
<path opacity="0.2" d="M13.7059 30.0882C12.6078 31.1429 11.6195 31.4661 10.5109 31.762C10.8343 32.3728 11.2265 32.9579 11.6865 33.5078C11.781 33.6207 11.878 33.731 11.9768 33.8395C13.0338 33.4994 14.175 32.9708 15.3712 31.822C15.8499 31.3622 15.8652 30.6013 15.4054 30.1225C14.9456 29.6438 14.1847 29.6284 13.7059 30.0882Z" fill="#A35F00"/>
<path d="M28.6284 28.624C29.1983 24.108 25.7205 19.9498 20.8604 19.3365C16.0004 18.7232 11.5986 21.887 11.0287 26.403C10.4588 30.919 13.9366 35.0771 18.7966 35.6905C23.6566 36.3038 28.0584 33.14 28.6284 28.624Z" fill="#FCD690"/>
<path d="M19.8555 33.9718C19.7837 33.9718 19.7118 33.9693 19.6397 33.9642C18.6974 33.8974 17.9323 33.3975 17.5405 32.5926C17.3953 32.2943 17.5194 31.935 17.8177 31.7898C18.1161 31.6444 18.4754 31.7688 18.6206 32.0669C18.8791 32.5984 19.3636 32.7405 19.7245 32.766C20.2749 32.8051 20.8582 32.5822 21.084 32.2481C21.2697 31.9733 21.6429 31.9011 21.9179 32.0868C22.1927 32.2726 22.2649 32.6459 22.0792 32.9207C21.6441 33.5645 20.7696 33.9718 19.8555 33.9718Z" fill="#FF91AB"/>
<path d="M22.7076 33.3009C24.5509 33.3009 26.0451 31.8066 26.0451 29.9633C26.0451 28.12 24.5509 26.6257 22.7076 26.6257C20.8643 26.6257 19.37 28.12 19.37 29.9633C19.37 31.8066 20.8643 33.3009 22.7076 33.3009Z" fill="#FF91AB"/>
<path opacity="0.15" d="M17.5254 35.4412C13.837 32.2936 15.766 27.0395 16.7472 24.7591L17.4064 19.5338C14.0673 20.3629 11.4603 22.9985 11.0309 26.4027C10.5122 30.5134 13.3473 34.3268 17.5254 35.4412Z" fill="#C17A00"/>
<path d="M11.8358 21.7297C10.4254 21.897 9.54603 25.3903 12.5489 25.6442C16.6501 25.991 20.8615 26.4555 22.6378 27.5571C22.9495 27.7504 23.3381 27.7511 23.6591 27.5738C25.3463 26.6421 28.3451 26.7067 29.3094 26.5576C31.5432 26.2123 30.501 22.7162 29.0804 22.7952C27.6598 22.874 11.8358 21.7297 11.8358 21.7297Z" fill="#BD4568"/>
<path d="M16.2679 12.8003C18.0801 11.4401 19.3699 9.06175 17.1214 5.32012C14.8551 1.54885 11.2364 0.437772 8.35414 0.619548C7.64353 0.664392 7.02412 1.12924 6.78261 1.79901C5.80294 4.51573 5.85899 8.30085 8.8471 11.5304C11.8117 14.7345 14.4557 14.1604 16.2679 12.8003Z" fill="#EDA751"/>
<path d="M6.64429 2.21545C5.81661 4.89398 6.0084 8.46248 8.84699 11.5303C11.4167 14.3076 13.745 14.2456 15.4999 13.2944C14.7628 5.30205 9.77485 2.92222 6.64429 2.21545Z" fill="#FF91AB"/>
<path d="M27.0479 13.386C25.3938 11.8375 24.3693 9.33341 27.0099 5.85739C29.6715 2.35391 33.3892 1.64153 36.2348 2.13441C36.9364 2.25597 37.5018 2.78529 37.6693 3.47724C38.3489 6.28412 37.883 10.0408 34.5625 12.9275C31.2682 15.7916 28.702 14.9344 27.0479 13.386Z" fill="#EDA751"/>
<path d="M37.7617 3.90625C38.2943 6.65868 37.717 10.1854 34.5627 12.9277C31.7072 15.4101 29.3993 15.0962 27.7578 13.9604C29.3565 6.09502 34.5729 4.26972 37.7617 3.90625Z" fill="#FF91AB"/>
<path d="M36.6175 16.1075C36.2429 23.0019 29.3278 25.6548 20.9999 25.2023C12.672 24.7498 6.08511 21.3633 6.45971 14.4688C6.83431 7.5743 13.889 2.35202 22.2169 2.80454C30.5447 3.25706 36.9921 9.21301 36.6175 16.1075Z" fill="#FFDC9C"/>
<path opacity="0.15" d="M14.0608 4.29456C9.71752 6.27736 6.70115 10.0255 6.45971 14.4688C6.13764 20.3956 10.9601 23.73 17.6104 24.8368C8.31784 18.578 9.98963 10.9294 14.0608 4.29456Z" fill="#C17A00"/>
<path d="M19.031 14.5879C19.0963 13.3872 17.9268 12.3474 16.4188 12.2654C14.9108 12.1834 13.6354 13.0902 13.5701 14.2909C13.5048 15.4915 14.6743 16.5313 16.1823 16.6133C17.6903 16.6953 18.9657 15.7885 19.031 14.5879Z" fill="#FF91AB"/>
<path d="M28.3727 15.0925C28.3074 16.2931 29.477 17.3329 30.985 17.4149C32.493 17.4969 33.7684 16.5901 33.8336 15.3894C33.8989 14.1888 32.7294 13.149 31.2214 13.067C29.7134 12.985 28.438 13.8918 28.3727 15.0925Z" fill="#FF91AB"/>
<path d="M13.3715 31.9791C11.7557 31.9791 10.2839 31.1993 9.52525 29.9053C9.08034 29.1464 8.91113 28.2593 9.03614 27.3399C9.15353 26.4755 9.52789 25.5926 10.149 24.7156C10.7625 23.8487 11.9628 23.6435 12.8298 24.2574C13.6967 24.8712 13.9017 26.0714 13.2879 26.9383C12.8502 27.5566 12.8277 27.9056 12.8456 27.9652C12.8822 28.0204 13.1447 28.1636 13.5014 28.1259C14.5582 28.0133 15.505 28.7786 15.6173 29.8348C15.7297 30.8909 14.9645 31.8382 13.9084 31.9505C13.7281 31.9697 13.5488 31.9791 13.3715 31.9791Z" fill="#EDA751"/>
<g opacity="0.07">
<path opacity="0.07" d="M24.8623 27.4156C22.8943 28.4206 20.4751 28.8947 19.5277 28.9486C19.4256 29.2687 19.37 29.6095 19.37 29.9635C19.37 30.0129 19.3716 30.0619 19.3738 30.1108C20.5199 30.0888 23.3433 29.5682 25.6208 28.3353C25.4245 27.9848 25.1669 27.6734 24.8623 27.4156Z" fill="black"/>
<path opacity="0.07" d="M26.0307 30.2675C26.0398 30.1673 26.0452 30.0661 26.0452 29.9635C26.0452 29.6238 25.9941 29.2962 25.8997 28.9873C23.7296 30.3793 20.4711 30.9563 19.52 30.9555C19.6485 31.3687 19.8554 31.7474 20.1228 32.0745C21.5503 31.9338 24.037 31.3877 26.0307 30.2675Z" fill="black"/>
</g>
<path d="M29.6281 13.5879C29.9448 13.5879 30.2098 13.34 30.2272 13.0199L30.2796 12.0558C30.2976 11.7246 30.0437 11.4415 29.7125 11.4235C29.3834 11.4052 29.0981 11.6593 29.0802 11.9906L29.0278 12.9547C29.0098 13.2859 29.2637 13.569 29.5949 13.5869C29.6061 13.5876 29.6171 13.5879 29.6281 13.5879ZM15.777 13.3653C14.9113 13.2026 13.114 13.2392 12.3529 13.3862C12.0272 13.449 11.814 13.7641 11.877 14.0897C11.9324 14.377 12.184 14.5766 12.466 14.5766C12.5038 14.5766 12.542 14.573 12.5805 14.5656C13.2079 14.4446 14.8524 14.4138 15.5552 14.5459C15.8812 14.607 16.1951 14.3924 16.2564 14.0664C16.3176 13.7404 16.1029 13.4265 15.777 13.3653ZM30.5494 16.6506C30.447 16.9661 30.6198 17.3048 30.9352 17.4072C31.6154 17.628 33.0444 18.4425 33.5371 18.8493C33.649 18.9417 33.7845 18.9867 33.9191 18.9867C34.0921 18.9867 34.2639 18.9123 34.3825 18.7685C34.5938 18.5128 34.5576 18.1342 34.3018 17.923C33.7039 17.4293 32.1437 16.5365 31.3059 16.2646C30.9905 16.1623 30.6518 16.335 30.5494 16.6506ZM36.2089 19.958C36.8004 18.8225 37.141 17.5433 37.2172 16.1401C37.3002 14.6115 37.0698 13.1073 36.5486 11.6784C38.3415 9.29036 38.9634 6.27071 38.2529 3.3361C38.0286 2.40944 37.2768 1.70555 36.3373 1.54276C33.4784 1.04747 30.5968 1.79348 28.3691 3.59115C26.4801 2.79814 24.4076 2.32215 22.2496 2.20492C20.0912 2.08769 17.9796 2.33633 16.0157 2.91993C13.9958 0.891403 11.2111 -0.16186 8.31641 0.0202367C7.36492 0.080215 6.54116 0.698496 6.21765 1.59545C5.19345 4.43581 5.48446 7.50503 7.00826 10.0733C6.33536 11.4373 5.94322 12.9077 5.8601 14.4363C5.74175 16.6155 6.27635 18.5548 7.44909 20.2004C7.64143 20.4704 8.01628 20.5336 8.2867 20.3409C8.5568 20.1484 8.61974 19.7734 8.42724 19.5032C7.41649 18.0848 6.95637 16.4019 7.05959 14.5014C7.41561 7.94866 14.2002 2.97038 22.1845 3.40424C30.1684 3.83811 36.3741 9.52203 36.018 16.075C35.9342 17.6185 35.5019 18.9676 34.7283 20.115C34.7129 20.1351 34.6981 20.1558 34.6852 20.1777C33.9364 21.2634 32.8784 22.1661 31.5137 22.8776C31.1094 23.0885 30.6805 23.2808 30.2287 23.4547C30.2267 23.4554 30.2247 23.4558 30.2228 23.4565C30.2191 23.4579 30.2158 23.4596 30.2121 23.4611C27.7528 24.4039 24.6146 24.7973 21.0327 24.6028C16.9892 24.3831 13.6207 23.4904 11.1992 22.0074C11.1838 21.9967 11.1681 21.9865 11.1515 21.9771C11.1503 21.9764 11.149 21.976 11.1479 21.9752C10.8298 21.7783 10.5276 21.5714 10.2433 21.354C9.97978 21.1524 9.60294 21.2028 9.40138 21.4663C9.19991 21.7297 9.25012 22.1066 9.51365 22.3081C9.70192 22.452 9.89754 22.5914 10.0989 22.727C9.95688 23.1477 9.90659 23.5962 9.95464 24.0223C9.84718 24.1278 9.74788 24.2432 9.65907 24.3687C9.24988 24.9466 8.93909 25.5302 8.72777 26.1136C6.07007 28.8788 3.84999 31.9784 2.6272 34.6349C2.23586 35.4852 2.55169 36.4753 3.36183 36.9377C3.54834 37.0441 3.75414 37.1474 3.97403 37.2463C4.05186 37.3452 4.13987 37.4372 4.23893 37.5197C4.56212 37.7888 4.9714 37.9369 5.39149 37.9369C5.5458 37.9369 5.6973 37.9167 5.84329 37.8792C6.88854 38.1446 8.11726 38.3423 9.50636 38.4683C9.50893 38.8569 9.6007 39.2505 9.79304 39.6179C10.2301 40.453 11.0875 40.9717 12.0306 40.9717C12.4351 40.9717 12.8392 40.8721 13.1992 40.6836C14.4512 40.0283 15.4525 39.3033 16.293 38.5486C17.1621 38.5009 18.0258 38.4328 18.8389 38.3471C18.8073 38.9577 18.9953 39.5813 19.4156 40.0879C19.8967 40.6676 20.605 41.0001 21.3588 41.0001C21.9029 41.0001 22.4214 40.8292 22.8582 40.5057C23.1248 40.3083 23.1809 39.9322 22.9835 39.6656C22.7861 39.399 22.4099 39.343 22.1434 39.5403C21.915 39.7095 21.6437 39.7989 21.3588 39.7989C20.9634 39.7989 20.5921 39.6246 20.34 39.3208C19.8744 38.7596 19.952 37.9242 20.5132 37.4584C20.9329 37.1103 21.2659 36.705 21.5097 36.2521C22.597 36.0855 23.6278 35.7415 24.5624 35.2497C24.471 35.9568 24.2509 36.781 23.781 37.6174C23.6186 37.9066 23.7212 38.2728 24.0104 38.4352C24.1034 38.4874 24.2044 38.5123 24.304 38.5123C24.5141 38.5123 24.7179 38.4019 24.8282 38.2057C25.6131 36.8089 25.8097 35.4436 25.8189 34.4566C27.5903 33.1296 28.8426 31.1972 29.194 28.9355C31.8082 27.9076 35.1466 25.8555 37.055 24.3749C38.1543 23.5218 38.3547 21.9334 37.5018 20.8339C37.1685 20.4048 36.713 20.104 36.2089 19.958ZM10.9985 5.3989C9.65043 6.39683 8.54479 7.56252 7.70742 8.84769C6.55806 6.52383 6.742 4.32314 7.06984 2.94187C8.31897 3.28933 9.88297 3.94869 11.2762 5.19847C11.1829 5.26429 11.0902 5.331 10.9985 5.3989ZM12.3176 4.52557C10.7189 3.00073 8.89465 2.20956 7.44428 1.79949C7.64247 1.46532 7.9945 1.24415 8.39184 1.21908C10.7386 1.07126 12.9995 1.84409 14.729 3.35852C13.8884 3.68332 13.0818 4.07329 12.3176 4.52557ZM31.8715 5.58805C31.1608 5.05561 30.4011 4.58059 29.6007 4.16658C31.4844 2.84842 33.8165 2.32512 36.1322 2.72639C36.5246 2.79429 36.8505 3.05238 37.0113 3.40609C35.5252 3.65657 33.626 4.24538 31.8715 5.58805ZM35.9862 10.3842C35.293 9.01585 34.3202 7.73733 33.0881 6.59911C33.0042 6.52167 32.9194 6.44528 32.8337 6.36968C34.3543 5.27822 35.9805 4.79223 37.2599 4.58219C37.4361 5.991 37.3805 8.19866 35.9862 10.3842ZM9.63129 27.4209C9.73555 26.6533 10.0746 25.86 10.6392 25.0626C10.8433 24.7744 11.1474 24.5828 11.4955 24.5233C11.5709 24.5104 11.6462 24.5041 11.7211 24.5041C11.9925 24.5041 12.2567 24.5876 12.4827 24.7477C12.771 24.9518 12.9625 25.256 13.022 25.6042C13.0815 25.9525 13.0018 26.303 12.7977 26.5913C12.3551 27.2165 12.1628 27.7802 12.2703 28.138C12.2872 28.1945 12.3124 28.2481 12.345 28.2971C12.5441 28.5977 13.0571 28.777 13.5649 28.7232C13.9162 28.6858 14.2612 28.7873 14.536 29.0093C14.8107 29.2312 14.9826 29.547 15.02 29.8984C15.0574 30.2497 14.9557 30.5945 14.7338 30.8692C14.5117 31.1441 14.196 31.316 13.8448 31.3534C13.6874 31.3701 13.5281 31.3786 13.3715 31.3786C11.9613 31.3786 10.686 30.6977 10.0433 29.6016C9.667 28.9599 9.52446 28.2058 9.63129 27.4209ZM4.00646 34.9811C3.86424 35.1519 3.75846 35.3442 3.68815 35.5483C3.65011 35.4159 3.657 35.2699 3.7181 35.1371C4.7017 33.0004 6.37132 30.5524 8.4057 28.238C8.45198 28.9392 8.65474 29.6081 9.00716 30.2092C9.24747 30.6191 9.55177 30.9853 9.90571 31.3003C8.25082 31.7356 6.21421 32.3285 4.00646 34.9811ZM5.85418 36.5189C5.79268 36.5928 5.71532 36.6491 5.6294 36.686C5.61426 36.6912 5.59937 36.6974 5.58471 36.7038C5.52321 36.7245 5.45803 36.7356 5.39133 36.7356C5.29243 36.7356 5.14557 36.7114 5.00727 36.5963C4.95386 36.5519 4.90998 36.4993 4.87547 36.4414C4.87458 36.4399 4.87378 36.4384 4.87282 36.437C4.82902 36.362 4.80123 36.278 4.79307 36.189C4.77841 36.029 4.82694 35.8729 4.92976 35.7494C6.95621 33.3147 8.68429 32.8618 10.3555 32.424C10.6757 32.3401 10.9816 32.2592 11.2876 32.1651C11.531 32.2671 11.7841 32.3516 12.0448 32.4169C12.1926 32.6196 12.3484 32.8156 12.5116 33.0048C11.8753 33.2687 11.2603 33.4302 10.6604 33.5874C9.10405 33.9952 7.63399 34.3804 5.85418 36.5189ZM9.78928 37.287C8.80056 37.2026 7.89808 37.082 7.09122 36.9262C8.47464 35.4025 9.58484 35.111 10.9647 34.7494C11.7069 34.555 12.5355 34.3378 13.4147 33.9172C13.484 33.9781 13.5543 34.0379 13.6252 34.0969C13.001 34.7713 12.1392 35.541 10.8584 36.2113C10.382 36.4608 10.019 36.8421 9.78928 37.287ZM12.6419 39.6192C12.4503 39.7195 12.2445 39.7704 12.0303 39.7704C11.5356 39.7704 11.086 39.4984 10.8569 39.0608C10.5187 38.4147 10.7692 37.6139 11.4153 37.2757C12.919 36.4887 13.9012 35.5837 14.6023 34.8085C15.3726 35.2988 16.2171 35.6832 17.111 35.9478C16.0406 37.2418 14.7057 38.539 12.6419 39.6192ZM19.7458 36.5339C19.5476 36.6984 19.3812 36.8872 19.2469 37.0922C18.7123 37.1556 18.1488 37.2112 17.5706 37.258C17.8711 36.9196 18.1506 36.5799 18.4163 36.2421C18.5186 36.2582 18.6211 36.2732 18.7243 36.2863C19.1303 36.3375 19.5331 36.363 19.9317 36.3656C19.8724 36.4232 19.8111 36.4798 19.7458 36.5339ZM28.0356 28.5479C27.5083 32.7285 23.399 35.6648 18.8747 35.0945C17.3866 34.9068 16 34.3562 14.8387 33.5179C14.8382 33.5175 14.8376 33.517 14.8371 33.5166C14.5208 33.2882 14.2214 33.0386 13.9412 32.7689C13.9352 32.7629 13.9291 32.7572 13.9229 32.7516C13.8601 32.6907 13.7979 32.6293 13.7371 32.5664C13.8155 32.5614 13.894 32.556 13.972 32.5478C14.6423 32.4764 15.2447 32.1484 15.6684 31.624C16.0919 31.0995 16.2859 30.4415 16.2146 29.7712C16.1432 29.1008 15.8153 28.4984 15.291 28.0748C14.8161 27.6911 14.2331 27.4958 13.6278 27.5154C13.6686 27.447 13.7181 27.3702 13.7782 27.2853C13.9717 27.012 14.1064 26.7094 14.1792 26.3927C17.293 26.6891 20.846 27.1525 22.3212 28.0674C22.5755 28.2251 22.8657 28.3042 23.158 28.3042C23.4291 28.3042 23.702 28.2361 23.9494 28.0994C25.0354 27.4998 26.8056 27.3488 28.0798 27.262C28.1036 27.6908 28.0895 28.1213 28.0356 28.5479ZM28.2511 26.0468C26.8617 26.1391 24.7621 26.2787 23.3688 27.048C23.2323 27.1234 23.0772 27.123 22.9542 27.0466C21.258 25.9948 17.7618 25.5222 14.1586 25.1843C14.0995 24.9588 14.0106 24.7451 13.8946 24.5477C15.9418 25.2327 18.3221 25.6583 20.9673 25.802C21.5823 25.8355 22.1847 25.852 22.7748 25.852C25.4926 25.852 27.9345 25.4981 29.9972 24.8107C30.0209 25.1075 29.9755 25.3808 29.8606 25.5761C29.735 25.7898 29.5246 25.9167 29.2176 25.9642C29.0086 25.9964 28.6575 26.0198 28.2511 26.0468ZM36.3183 23.4258C34.5873 24.7689 31.6465 26.5772 29.2921 27.5949C29.2911 27.4526 29.2858 27.3103 29.2774 27.1681C29.3206 27.1628 29.3623 27.1572 29.4011 27.1512C30.2436 27.021 30.679 26.554 30.896 26.1852C31.1882 25.6885 31.274 25.0401 31.1496 24.3762C31.4671 24.2406 31.774 24.0963 32.0688 23.9426C33.5165 23.1879 34.673 22.2171 35.5223 21.0592C35.9219 21.0639 36.3028 21.2484 36.5525 21.5701C36.9995 22.1463 36.8944 22.9787 36.3183 23.4258ZM31.8318 15.4302C32.5447 15.3753 34.1763 15.5838 34.7869 15.7722C34.8459 15.7904 34.9054 15.7991 34.9641 15.7991C35.2207 15.7991 35.4583 15.6334 35.5379 15.3754C35.6357 15.0584 35.458 14.7223 35.141 14.6245C34.4002 14.396 32.617 14.1647 31.7393 14.2327C31.4086 14.2582 31.1612 14.547 31.1868 14.8777C31.2123 15.2084 31.5005 15.456 31.8318 15.4302ZM15.9875 15.4323C15.1251 15.6119 13.4774 16.3304 12.8296 16.7564C12.5524 16.9386 12.4755 17.311 12.6577 17.5882C12.7731 17.7637 12.9647 17.8589 13.1601 17.8589C13.2733 17.8589 13.3878 17.827 13.4894 17.7601C14.0234 17.4091 15.5321 16.7542 16.2322 16.6084C16.557 16.5408 16.7653 16.2228 16.6978 15.898C16.6302 15.5732 16.3115 15.3652 15.9875 15.4323ZM18.0118 12.9566C18.3285 12.9566 18.5936 12.7087 18.611 12.3887L18.6633 11.4245C18.6814 11.0933 18.4274 10.8102 18.0962 10.7923C17.7661 10.7742 17.482 11.0281 17.4639 11.3594L17.4116 12.3235C17.3935 12.6547 17.6475 12.9378 17.9787 12.9558C17.9897 12.9564 18.0008 12.9566 18.0118 12.9566ZM23.7466 14.0117C23.7943 14.0144 23.8418 14.0157 23.8894 14.0157C24.5988 14.0157 25.2809 13.7288 25.7791 13.2163C26.0102 12.9784 26.0047 12.5981 25.767 12.367C25.5289 12.1358 25.1488 12.1414 24.9177 12.3791C24.6282 12.6769 24.2247 12.8346 23.8118 12.8124C23.3984 12.7899 23.0148 12.5892 22.7593 12.2618C22.5551 12.0003 22.178 11.9539 21.9163 12.1578C21.6548 12.3618 21.6083 12.7392 21.8123 13.0008C22.2813 13.6019 22.9864 13.9704 23.7466 14.0117Z" fill="black"/>
</g>
<defs>
<clipPath id="clip0">
<rect width="41" height="41" fill="white"/>
</clipPath>
</defs>
</svg>
