<svg width="15" height="14" viewBox="0 0 15 14" fill="none" xmlns="http://www.w3.org/2000/svg">
<g clip-path="url(#clip0)">
<path d="M11.092 7.94729C10.0828 6.81137 8.80718 6.18579 7.50001 6.18579C6.19284 6.18579 4.91717 6.81137 3.90801 7.94729C3.00089 8.96831 2.45934 10.2551 2.45934 11.3894C2.45934 11.9404 2.64004 12.3602 2.99641 12.637C3.34814 12.9102 3.81253 13.0026 4.33062 13.0026C4.88189 13.0026 5.49402 12.8979 6.09546 12.7951C6.62102 12.7052 7.11742 12.6203 7.50004 12.6203C7.83028 12.6203 8.29589 12.7009 8.78875 12.7862C9.94062 12.9855 11.2462 13.2114 12.0004 12.6269C12.3589 12.349 12.5407 11.9326 12.5407 11.3894C12.5407 10.2551 11.9992 8.96831 11.092 7.94729Z" fill="black"/>
<path d="M11.1952 1.77928C10.826 1.27177 10.2972 0.980713 9.74453 0.980713C9.19181 0.980713 8.66309 1.27179 8.29383 1.77928C7.95463 2.24551 7.76781 2.85776 7.76781 3.50328C7.76781 4.1488 7.9546 4.76106 8.29383 5.22728C8.66309 5.73477 9.19184 6.02585 9.74453 6.02585C10.2972 6.02585 10.826 5.73477 11.1952 5.22728C11.5344 4.76106 11.7212 4.1488 11.7212 3.50328C11.7212 2.85776 11.5344 2.24548 11.1952 1.77928Z" fill="black"/>
<path d="M6.70621 1.77904C6.33695 1.27152 5.80823 0.980469 5.25551 0.980469C4.7028 0.980469 4.17405 1.27155 3.80482 1.77904C3.46562 2.24526 3.27879 2.85752 3.27879 3.50304C3.27879 4.14856 3.46559 4.76082 3.80482 5.22704C4.17408 5.73456 4.7028 6.02564 5.25551 6.02564C5.80823 6.02564 6.33695 5.73456 6.70621 5.22704C7.04541 4.76082 7.23223 4.14859 7.23223 3.50304C7.2322 2.85752 7.04541 2.24524 6.70621 1.77904Z" fill="black"/>
<path d="M14.9127 5.73891C14.7638 5.26687 14.4447 4.92387 14.0143 4.77314C13.6679 4.65186 13.2769 4.67242 12.9132 4.83107C12.4121 5.04967 12.0025 5.50106 11.7895 6.06948C11.6155 6.53399 11.5937 7.02496 11.7284 7.45202C11.8773 7.92406 12.1964 8.26706 12.6268 8.41778C12.7758 8.46995 12.933 8.49587 13.0927 8.49587C13.3044 8.49587 13.5207 8.45028 13.7279 8.35986C14.2291 8.14126 14.6387 7.68987 14.8516 7.12147V7.12144C15.0257 6.65697 15.0474 6.16597 14.9127 5.73891Z" fill="black"/>
<path d="M3.21066 6.06944C2.99764 5.50102 2.58804 5.04965 2.08695 4.83106C1.72328 4.67241 1.33223 4.65187 0.985852 4.77313C0.555364 4.92389 0.236292 5.26689 0.0874343 5.7389C-0.0472434 6.16596 -0.0255344 6.65696 0.148518 7.12143V7.12146C0.361565 7.68988 0.771135 8.14125 1.27223 8.35984C1.47953 8.45027 1.69572 8.49585 1.90744 8.49585C2.06717 8.49585 2.22438 8.46991 2.37332 8.41777C2.80387 8.26701 3.12291 7.92402 3.27177 7.452C3.40639 7.02497 3.38468 6.53397 3.21066 6.06944Z" fill="black"/>
</g>
<defs>
<clipPath id="clip0">
<rect width="15" height="13.9832" fill="white"/>
</clipPath>
</defs>
</svg>
