<svg width="52" height="52" viewBox="0 0 52 52" fill="none" xmlns="http://www.w3.org/2000/svg">
<g clip-path="url(#clip0)">
<path fill-rule="evenodd" clip-rule="evenodd" d="M35.3073 36.8323C31.7547 40.231 26.4789 40.6362 21.7972 40.1504C17.7253 39.7285 12.2016 38.4382 10.8718 33.9545C9.90794 30.6928 10.0063 25.7069 12.6187 23.0959C12.5793 22.9407 12.5754 22.7655 12.6383 22.5691C13.3189 20.4305 14.2946 18.4074 15.0814 16.3079C15.3804 15.5042 16.3916 15.3332 16.8873 16.074C17.7922 17.4319 18.4649 18.904 18.9646 20.4462C23.249 20.4375 27.5333 20.2983 31.8098 20.5134C32.6479 18.9443 33.5094 17.4038 34.7015 16.0615C35.2169 15.4795 36.1375 15.8355 36.3499 16.4949C36.9598 18.3695 37.3768 20.2948 37.4201 22.2695C37.424 22.3665 37.4082 22.4533 37.3886 22.5355C40.1033 26.6957 38.8049 33.4879 35.3073 36.8323ZM25.4325 4.18677H27.4075C28.6821 4.18677 28.6821 6.14894 27.4075 6.14894H25.4325C24.1616 6.14894 24.1616 4.18677 25.4325 4.18677ZM45.5404 14.1009C45.7135 11.8172 45.9849 9.55822 46.4649 7.34689C42.0743 7.24716 37.7269 6.46496 33.3285 6.52284C32.0577 6.53965 32.0577 4.57748 33.3285 4.56067C37.8882 4.50043 42.3929 5.34952 46.9449 5.39841C47.1927 4.52585 47.48 3.66269 47.8065 2.80891C45.0682 2.91802 42.2789 2.70174 39.5642 2.58715C36.2319 2.44596 32.9036 2.28209 29.5712 2.2242C23.005 2.11 16.3955 1.18386 9.8489 2.03099C9.79379 2.4483 9.73483 2.86483 9.67185 3.28096C13.3582 3.6005 17.021 4.23957 20.7349 4.0929C22.0057 4.04245 22.0018 6.0054 20.7349 6.05547C16.9187 6.20643 13.1497 5.52357 9.3611 5.2142C9.35716 5.2142 9.35716 5.21342 9.35322 5.21342C8.07064 12.572 5.96188 19.7558 4.49835 27.0848C3.59347 31.6228 2.97186 36.23 2.74368 40.8532C2.62959 43.106 2.64139 45.3611 2.56663 47.6154C2.50762 49.4326 2.45254 51.261 2.69647 53.0651C9.5145 53.0827 16.3286 53.2904 23.1466 53.3956C26.6403 53.45 30.1299 53.4825 33.6236 53.4359C35.3349 53.4128 37.1604 53.1766 38.864 53.3612C39.8947 53.4738 41.0081 53.7844 42.0507 53.6396C42.0664 51.9521 41.9366 50.286 42.1451 48.5757C42.3969 46.4718 42.633 44.3732 42.8415 42.2644C43.2939 37.6337 43.6794 32.9987 44.0886 28.3645C44.5096 23.6036 45.1784 18.8681 45.5404 14.1009Z" fill="#86C3C6"/>
<path fill-rule="evenodd" clip-rule="evenodd" d="M30.6279 27.9205C29.3707 27.9205 29.3707 25.9805 30.6279 25.9805C31.8812 25.9805 31.8812 27.9205 30.6279 27.9205ZM17.0391 28.0064C16.6627 28.3811 16.034 28.3787 15.6616 28.0064C15.3317 27.6773 15.2929 27.1595 15.5374 26.7832C15.6848 26.4252 16.034 26.1649 16.4415 26.1649C16.9692 26.1649 17.4193 26.6065 17.4155 27.1355C17.4155 27.4831 17.2835 27.7608 17.0391 28.0064ZM34.6595 22.7114C34.6595 22.7075 34.6595 22.7044 34.6595 22.7006C34.6363 21.5741 34.4655 20.4744 34.2095 19.3904C33.5692 20.37 33.0337 21.4178 32.4866 22.4507C32.3352 22.7361 31.9744 22.9503 31.6484 22.931C27.1977 22.6727 22.747 22.8317 18.2963 22.8389C18.2846 22.8389 18.2768 22.8363 18.2691 22.8363C17.7686 23.1375 17.0041 23.0397 16.8024 22.3111C16.5114 21.2597 16.1388 20.2535 15.6693 19.2903C15.1377 20.5787 14.5945 21.8629 14.1521 23.187C14.3927 23.6065 14.3772 24.1998 13.8727 24.5544C11.4049 26.2855 11.2807 31.7847 12.4835 34.2472C14.121 37.5882 18.9598 38.352 22.2813 38.5232C25.9832 38.7143 30.3912 38.5767 33.1462 35.7271C36.0021 32.7789 37.2089 27.1409 34.7022 23.6514C34.4539 23.3069 34.4849 22.97 34.6595 22.7114Z" fill="#FFFFFE"/>
<path fill-rule="evenodd" clip-rule="evenodd" d="M48.8652 5.03223C47.6933 8.5564 47.3835 12.2363 47.0498 15.9481C46.6366 20.5211 45.9891 25.0698 45.6196 29.6475C45.2621 34.0767 44.837 38.5001 44.3961 42.9223C44.1895 45.0047 43.9035 47.0778 43.6929 49.1586C43.538 50.6821 43.6572 52.1737 43.6492 53.6774C45.2462 53.6233 46.8352 53.5212 48.4243 53.6755C48.762 51.9136 48.7977 50.1174 48.8494 48.3232C48.905 46.2798 49.0718 44.2426 49.1949 42.2022C49.4611 37.8221 49.5366 33.4614 49.4492 29.0746C49.2823 21.0601 48.9407 13.0491 48.8652 5.03223Z" fill="#86C3C6"/>
<path fill-rule="evenodd" clip-rule="evenodd" d="M48.9035 42.4683C48.7817 44.5248 48.6166 46.5782 48.5617 48.6377C48.5106 50.4461 48.4752 52.2565 48.1413 54.0323C46.5697 53.8769 44.998 53.9797 43.4186 54.0342C43.4265 52.5187 43.3085 51.0153 43.4618 49.4797C43.67 47.3824 43.9529 45.293 44.1572 43.1941C44.5934 38.737 45.0137 34.2787 45.3674 29.8144C45.7327 25.2005 46.3732 20.6158 46.7818 16.0068C47.1118 12.2655 47.4183 8.55652 48.5774 5.00455C48.652 13.0848 48.99 21.1591 49.1549 29.237C49.2414 33.6584 49.1668 38.0536 48.9035 42.4683ZM42.2398 42.6607C42.0316 44.7772 41.7958 46.8835 41.5444 48.9949C41.3361 50.7115 41.4658 52.3836 41.4501 54.0774C40.4089 54.2227 39.297 53.911 38.2676 53.7979C36.5663 53.6127 34.7433 53.8498 33.0342 53.8729C29.5451 53.9196 26.0601 53.887 22.5711 53.8325C15.7621 53.7269 8.957 53.5185 2.14801 53.5008C1.90442 51.69 1.95942 49.855 2.01835 48.0313C2.09301 45.7687 2.08122 43.5054 2.19516 41.2445C2.42305 36.6044 3.04383 31.9803 3.94751 27.4258C5.40911 20.0702 7.51507 12.8603 8.79597 5.47479C8.79983 5.47479 8.79983 5.47558 8.80377 5.47558C12.5874 5.78607 16.3515 6.47143 20.1627 6.31991C21.4278 6.26967 21.4317 4.29956 20.1627 4.3502C16.4536 4.4974 12.7957 3.856 9.11417 3.53531C9.17708 3.11766 9.23595 2.69961 9.29097 2.28079C15.8289 1.43056 22.4297 2.36008 28.9872 2.4747C32.3151 2.53279 35.6391 2.69726 38.967 2.83897C41.678 2.95397 44.4637 3.17104 47.1983 3.06153C46.8722 3.91842 46.5854 4.78473 46.3379 5.66046C41.792 5.6114 37.2932 4.75922 32.7394 4.81966C31.4704 4.83655 31.4704 6.80587 32.7394 6.78899C37.1321 6.73089 41.4737 7.51595 45.8585 7.61605C45.3791 9.83538 45.1081 12.1027 44.9352 14.3946C44.5737 19.1792 43.9058 23.9319 43.4853 28.7102C43.0767 33.3613 42.6917 38.0132 42.2398 42.6607ZM50.5301 2.23996C50.5301 1.7022 50.5223 1.20329 50.2433 1.04C49.8504 0.908893 49.3553 0.935975 48.9821 0.974052C45.6856 1.30928 42.2674 1.00624 38.967 0.869247C35.4622 0.723619 31.9576 0.557187 28.4529 0.495953C21.6988 0.377801 14.992 -0.527372 8.25766 0.446494C7.88047 0.501055 7.66831 0.713414 7.58579 0.976409C7.51114 1.09574 7.46006 1.23508 7.44042 1.39563C6.301 10.5734 3.45245 19.4206 1.73939 28.4896C0.910369 32.8737 0.41531 37.3407 0.195284 41.7948C0.0852708 44.0377 0.104916 46.2861 0.0302646 48.5302C-0.0365289 50.5835 -0.0168837 52.6211 0.340658 54.6493C0.423168 55.1282 0.757136 55.3441 1.1186 55.3598C1.24827 55.4254 1.39757 55.4662 1.57438 55.4662C8.75663 55.4728 15.9389 55.699 23.1212 55.8104C26.6102 55.865 30.0953 55.8815 33.5842 55.8356C35.3327 55.8116 37.1439 55.6008 38.8806 55.841C39.9571 55.9902 41.0415 56.2038 42.1023 55.9733C42.2006 56.0079 42.3067 56.0307 42.4127 56.0295C44.3969 56.0075 46.3771 55.7952 48.3574 56.0235C48.8682 56.3396 49.65 56.2434 49.8386 55.4936C50.8169 51.6617 50.5537 47.4955 50.8052 43.5694C51.1038 38.9729 51.2177 34.3952 51.1352 29.7896C50.9701 20.6057 50.5419 11.4271 50.5301 2.23996Z" fill="#555C5C"/>
<path fill-rule="evenodd" clip-rule="evenodd" d="M25.1458 5.87102H26.8516C27.9527 5.87102 27.9527 4.1936 26.8516 4.1936H25.1458C24.0482 4.1936 24.0482 5.87102 25.1458 5.87102Z" fill="#555C5C"/>
<path fill-rule="evenodd" clip-rule="evenodd" d="M33.6489 35.4613C30.8573 38.2973 26.3908 38.4342 22.64 38.2441C19.2744 38.0737 14.3715 37.3136 12.7122 33.9884C11.4934 31.5376 11.6192 26.0645 14.1198 24.3416C14.631 23.9886 14.6466 23.3983 14.4029 22.9807C14.8511 21.6629 15.4016 20.3848 15.9403 19.1025C16.416 20.0611 16.7934 21.0626 17.0883 22.109C17.2928 22.8341 18.0673 22.9315 18.5745 22.6316C18.5824 22.6316 18.5903 22.6343 18.602 22.6343C23.1117 22.627 27.6215 22.4688 32.1312 22.7259C32.4615 22.7452 32.8272 22.532 32.9805 22.2479C33.5349 21.22 34.0774 20.177 34.7262 19.2021C34.9857 20.2809 35.1587 21.3755 35.1823 22.4965C35.1823 22.5004 35.1823 22.5035 35.1823 22.5073C35.0053 22.7648 34.9739 23.0999 35.2256 23.4429C37.7654 26.9158 36.5427 32.527 33.6489 35.4613ZM37.156 22.4965C37.1127 20.5534 36.696 18.6587 36.0866 16.8141C35.8743 16.1652 34.9542 15.815 34.4392 16.3877C33.2479 17.7086 32.3868 19.2244 31.5493 20.7685C27.2755 20.5568 22.9938 20.6939 18.7121 20.7023C18.2128 19.1848 17.5404 17.7362 16.6361 16.4C16.1407 15.6711 15.1303 15.8392 14.8315 16.6301C14.0451 18.6961 13.07 20.6869 12.3898 22.7913C12.3269 22.9845 12.3309 23.157 12.3702 23.3097C9.75948 25.879 9.66118 30.7852 10.6245 33.995C11.9535 38.4069 17.4736 39.6765 21.543 40.0919C26.2218 40.5699 31.4943 40.1711 35.0446 36.8267C38.54 33.5358 39.8375 26.852 37.1246 22.7583C37.1442 22.6774 37.16 22.5919 37.156 22.4965Z" fill="#555C5C"/>
<path fill-rule="evenodd" clip-rule="evenodd" d="M15.9716 26C15.6359 26 15.3481 26.2057 15.2266 26.4889C15.0252 26.7864 15.0572 27.1957 15.3289 27.4559C15.6359 27.7503 16.1539 27.7521 16.464 27.4559C16.6655 27.2618 16.7742 27.0423 16.7742 26.7674C16.7774 26.3492 16.4065 26 15.9716 26Z" fill="#555C5C"/>
<path fill-rule="evenodd" clip-rule="evenodd" d="M31.0335 26C29.9136 26 29.9136 27.6774 31.0335 27.6774C32.1501 27.6774 32.1501 26 31.0335 26Z" fill="#555C5C"/>
</g>
<defs>
<clipPath id="clip0">
<rect width="52" height="52" fill="white"/>
</clipPath>
</defs>
</svg>
