<svg width="1440" height="794" viewBox="0 0 1440 794" fill="none" xmlns="http://www.w3.org/2000/svg">
<g clip-path="url(#clip0)">
<path d="M0 294.4L60 245.295C120 196.65 240 97.75 360 67.505C480 36.8 600 73.6 720 134.895C840 196.65 960 281.75 1080 306.705C1200 331.2 1320 294.4 1380 276L1440 257.6V368H1380C1320 368 1200 368 1080 368C960 368 840 368 720 368C600 368 480 368 360 368C240 368 120 368 60 368H0V294.4Z" fill="#E5E5E5"/>
</g>
<g clip-path="url(#clip1)">
<path d="M1451 440.4L1390.54 499.379C1330.08 557.806 1209.17 676.594 1088.25 712.921C967.333 749.8 846.417 705.6 725.5 631.979C604.583 557.806 483.667 455.594 362.75 425.621C241.833 396.2 120.917 440.4 60.4583 462.5L-6.10352e-05 484.6V352H60.4583C120.917 352 241.833 352 362.75 352C483.667 352 604.583 352 725.5 352C846.417 352 967.333 352 1088.25 352C1209.17 352 1330.08 352 1390.54 352H1451V440.4Z" fill="#E5E5E5"/>
</g>
<defs>
<clipPath id="clip0">
<rect width="1440" height="368" fill="white"/>
</clipPath>
<clipPath id="clip1">
<rect width="1451" height="442" fill="white" transform="translate(1451 794) rotate(-180)"/>
</clipPath>
</defs>
</svg>
